<svg width="31" height="31" viewBox="0 0 31 31" fill="none" xmlns="http://www.w3.org/2000/svg">
<path d="M8.4675 4.26955C9.13365 3.60341 10.0371 3.22917 10.9792 3.22917H14.5313V10.3333H10.9792C10.0371 10.3333 9.13365 9.9591 8.4675 9.29295C7.80136 8.62681 7.42712 7.72332 7.42712 6.78125C7.42712 5.83918 7.80136 4.9357 8.4675 4.26955Z" fill="white"/>
<path d="M20.0209 10.3333H16.4688V3.22917H20.0209C20.4873 3.22917 20.9492 3.32105 21.3802 3.49956C21.8112 3.67807 22.2027 3.93971 22.5326 4.26955C22.8624 4.59939 23.1241 4.99097 23.3026 5.42193C23.4811 5.85289 23.573 6.31479 23.573 6.78125C23.573 7.24772 23.4811 7.70961 23.3026 8.14057C23.1241 8.57153 22.8624 8.96311 22.5326 9.29295C22.2027 9.62279 21.8112 9.88444 21.3802 10.0629C20.9492 10.2415 20.4873 10.3333 20.0209 10.3333Z" fill="white"/>
<path d="M20.0209 12.2708C19.5544 12.2708 19.0925 12.3627 18.6615 12.5412C18.2306 12.7197 17.839 12.9814 17.5092 13.3112C17.1793 13.6411 16.9177 14.0326 16.7392 14.4636C16.5607 14.8946 16.4688 15.3565 16.4688 15.8229C16.4688 16.2894 16.5607 16.7513 16.7392 17.1822C16.9177 17.6132 17.1793 18.0048 17.5092 18.3346C17.839 18.6645 18.2306 18.9261 18.6615 19.1046C19.0925 19.2831 19.5544 19.375 20.0209 19.375C20.4873 19.375 20.9492 19.2831 21.3802 19.1046C21.8112 18.9261 22.2027 18.6645 22.5326 18.3346C22.8624 18.0048 23.1241 17.6132 23.3026 17.1822C23.4811 16.7513 23.573 16.2894 23.573 15.8229C23.573 15.3565 23.4811 14.8946 23.3026 14.4636C23.1241 14.0326 22.8624 13.6411 22.5326 13.3112C22.2027 12.9814 21.8112 12.7197 21.3802 12.5412C20.9492 12.3627 20.4873 12.2708 20.0209 12.2708Z" fill="white"/>
<path d="M8.4675 22.3529C9.13365 21.6867 10.0371 21.3125 10.9792 21.3125H14.5313V24.8646C14.5313 25.8067 14.157 26.7101 13.4909 27.3763C12.8248 28.0424 11.9213 28.4167 10.9792 28.4167C10.0371 28.4167 9.13365 28.0424 8.4675 27.3763C7.80136 26.7101 7.42712 25.8067 7.42712 24.8646C7.42712 23.9225 7.80136 23.019 8.4675 22.3529Z" fill="white"/>
<path d="M10.9792 12.2708C10.0371 12.2708 9.13365 12.6451 8.4675 13.3112C7.80136 13.9774 7.42712 14.8808 7.42712 15.8229C7.42712 16.765 7.80136 17.6685 8.4675 18.3346C9.13365 19.0008 10.0371 19.375 10.9792 19.375H14.5313V12.2708H10.9792Z" fill="white"/>
</svg>
